#N canvas 1048 381 730 584 10;
#X obj 232 527 outlet;
#X obj 139 40 inlet;
#X obj 139 67 route read write;
#X obj 232 400 spigot 1;
#X msg 248 116 0;
#X msg 185 117 1;
#X obj 302 526 textfile;
#X msg 334 466 clear;
#X obj 302 399 spigot 0;
#X obj 139 222 textfile;
#X msg 139 154 read \$1;
#X obj 139 176 t b a;
#X obj 139 199 until;
#X obj 277 318 f;
#X obj 347 369 == 0;
#X obj 185 95 t b a b b b;
#X obj 302 442 list trim;
#X obj 302 420 list prepend add;
#X msg 381 467 write \$1;
#X obj 381 444 symbol;
#X obj 139 95 symbol;
#X msg 216 230 getRow;
#X obj 232 273 mtx_preset \$1 \$2;
#X connect 1 0 2 0;
#X connect 2 0 20 0;
#X connect 2 1 15 0;
#X connect 2 2 22 0;
#X connect 3 0 0 0;
#X connect 4 0 13 0;
#X connect 5 0 13 0;
#X connect 7 0 6 0;
#X connect 8 0 17 0;
#X connect 9 0 22 0;
#X connect 9 1 12 1;
#X connect 10 0 11 0;
#X connect 11 0 12 0;
#X connect 12 0 9 0;
#X connect 13 0 3 1;
#X connect 13 0 14 0;
#X connect 14 0 8 1;
#X connect 15 0 5 0;
#X connect 15 1 19 0;
#X connect 15 2 21 0;
#X connect 15 3 7 0;
#X connect 15 4 4 0;
#X connect 16 0 6 0;
#X connect 17 0 16 0;
#X connect 18 0 6 0;
#X connect 19 0 18 0;
#X connect 20 0 10 0;
#X connect 21 0 22 0;
#X connect 22 0 3 0;
#X connect 22 0 8 0;
