#N canvas 590 165 683 616 10;
#X obj 33 299 line3;
#N canvas 0 50 450 300 (subpatch) 0;
#X array line3 100 float 2;
#X coords 0 1 99 -1 200 140 1;
#X restore 306 174 graph;
#X obj 33 394 t f b;
#X obj 63 440 + 1;
#X obj 63 418 f;
#X obj 63 466 % 100;
#X obj 62 163 random 127;
#X obj 62 114 metro 300;
#X msg 62 186 \$1 1000;
#X obj 62 91 tgl 15 0 empty empty empty 0 -6 0 8 -262144 -1 -1 0 1
;
#X obj 149 299 line;
#N canvas 0 50 450 300 (subpatch) 0;
#X array line 100 float 2;
#X coords 0 1 99 -1 200 140 1;
#X restore 306 314 graph;
#X obj 33 525 tabwrite line3;
#X obj 149 526 tabwrite line;
#X text 290 7 line3;
#X obj 80 139 bng 15 250 50 0 empty empty empty 0 -6 0 8 -262144 -1
-1;
#X text 168 40 line3 is compatible with line \, but the transition
is made with a 3d order polynome. coeficiant of this polynome are adjusted
to have the continuity of the output variation speed.;
#X obj 33 337 - 63.5;
#X obj 149 338 - 63.5;
#X obj 149 362 / 63.5;
#X obj 33 360 / 63.5;
#X obj 33 268 t a;
#X msg 75 209 stop;
#X msg 32 44 0 10000;
#X msg 43 66 127 10000;
#X msg 80 233 66;
#X connect 0 0 17 0;
#X connect 2 0 12 0;
#X connect 2 1 4 0;
#X connect 3 0 5 0;
#X connect 4 0 3 0;
#X connect 5 0 4 1;
#X connect 5 0 12 1;
#X connect 5 0 13 1;
#X connect 6 0 8 0;
#X connect 7 0 6 0;
#X connect 8 0 21 0;
#X connect 9 0 7 0;
#X connect 10 0 18 0;
#X connect 15 0 6 0;
#X connect 17 0 20 0;
#X connect 18 0 19 0;
#X connect 19 0 13 0;
#X connect 20 0 2 0;
#X connect 21 0 0 0;
#X connect 21 0 10 0;
#X connect 22 0 21 0;
#X connect 23 0 21 0;
#X connect 24 0 21 0;
#X connect 25 0 21 0;
