#N canvas 2959 446 450 300 10;
#X obj 37 27 inlet;
#X obj 37 259 outlet;
#X obj 37 82 change;
#X obj 215 174 f;
#X obj 215 144 t b f;
#X obj 215 202 pack f f \$1;
#X obj 122 41 r from_mtx_preset_\$1;
#X msg 215 235 element \$3 \$2 \$1;
#X obj 215 261 s to_mtx_preset;
#X obj 64 228 s parametre_\$1;
#X obj 215 117 r save_parameters;
#X connect 0 0 2 0;
#X connect 2 0 1 0;
#X connect 2 0 3 1;
#X connect 2 0 9 0;
#X connect 3 0 5 0;
#X connect 4 0 3 0;
#X connect 4 1 5 1;
#X connect 5 0 7 0;
#X connect 6 0 2 0;
#X connect 7 0 8 0;
#X connect 10 0 4 0;
